<mxfile host="app.diagrams.net" modified="2022-11-27T10:03:52.778Z" agent="5.0 (Macintosh; Intel Mac OS X 10_14_6) AppleWebKit/537.36 (KHTML, like Gecko) Chrome/107.0.0.0 Safari/537.36" version="20.6.0" etag="PGLlzw_sEilWI8a0zzHI" type="github">
  <diagram id="Qq4sfeGaa5dzuuR6CXia" name="第 1 页">
    <mxGraphModel dx="946" dy="534" grid="1" gridSize="10" guides="1" tooltips="1" connect="1" arrows="1" fold="1" page="1" pageScale="1" pageWidth="827" pageHeight="1169" math="0" shadow="0">
      <root>
        <mxCell id="0" />
        <mxCell id="1" parent="0" />
        <mxCell id="HIL-9lf9A-liKalxmrsc-1" value="" style="rounded=1;whiteSpace=wrap;html=1;strokeWidth=2;fillWeight=4;hachureGap=8;hachureAngle=45;fillColor=#f5f5f5;sketch=0;strokeColor=#666666;fontColor=#333333;fontSize=15;" vertex="1" parent="1">
          <mxGeometry x="79" y="320" width="601" height="320" as="geometry" />
        </mxCell>
        <mxCell id="HIL-9lf9A-liKalxmrsc-2" value="client" style="rounded=1;whiteSpace=wrap;html=1;strokeWidth=2;fillWeight=4;hachureGap=8;hachureAngle=45;fillColor=#d5e8d4;sketch=0;strokeColor=#82b366;fontSize=20;fontStyle=1" vertex="1" parent="1">
          <mxGeometry x="320" y="120" width="120" height="80" as="geometry" />
        </mxCell>
        <mxCell id="HIL-9lf9A-liKalxmrsc-3" style="edgeStyle=orthogonalEdgeStyle;rounded=0;orthogonalLoop=1;jettySize=auto;html=1;fontSize=15;strokeWidth=3;labelBackgroundColor=none;sketch=1;" edge="1" parent="1" source="HIL-9lf9A-liKalxmrsc-4" target="HIL-9lf9A-liKalxmrsc-5">
          <mxGeometry relative="1" as="geometry" />
        </mxCell>
        <mxCell id="HIL-9lf9A-liKalxmrsc-17" value="&lt;font style=&quot;font-size: 15px;&quot;&gt;&lt;b&gt;X&lt;/b&gt;&lt;/font&gt;" style="edgeLabel;html=1;align=center;verticalAlign=middle;resizable=0;points=[];" vertex="1" connectable="0" parent="HIL-9lf9A-liKalxmrsc-3">
          <mxGeometry x="-0.0143" y="1" relative="1" as="geometry">
            <mxPoint as="offset" />
          </mxGeometry>
        </mxCell>
        <mxCell id="HIL-9lf9A-liKalxmrsc-4" value="leader" style="rounded=1;whiteSpace=wrap;html=1;strokeWidth=2;fillWeight=4;hachureGap=8;hachureAngle=45;fillColor=#f8cecc;sketch=0;strokeColor=#b85450;fontSize=20;fontStyle=1" vertex="1" parent="1">
          <mxGeometry x="120" y="360" width="120" height="80" as="geometry" />
        </mxCell>
        <mxCell id="HIL-9lf9A-liKalxmrsc-29" style="edgeStyle=orthogonalEdgeStyle;rounded=0;orthogonalLoop=1;jettySize=auto;html=1;entryX=0;entryY=0.5;entryDx=0;entryDy=0;labelBackgroundColor=none;strokeWidth=3;fontSize=15;fontColor=#000000;sketch=1;" edge="1" parent="1" source="HIL-9lf9A-liKalxmrsc-5" target="HIL-9lf9A-liKalxmrsc-2">
          <mxGeometry relative="1" as="geometry">
            <Array as="points">
              <mxPoint x="40" y="560" />
              <mxPoint x="40" y="160" />
            </Array>
          </mxGeometry>
        </mxCell>
        <mxCell id="HIL-9lf9A-liKalxmrsc-5" value="follower" style="rounded=1;whiteSpace=wrap;html=1;strokeWidth=2;fillWeight=4;hachureGap=8;hachureAngle=45;fillColor=#dae8fc;sketch=0;strokeColor=#6c8ebf;fontSize=20;fontStyle=1" vertex="1" parent="1">
          <mxGeometry x="120" y="520" width="120" height="80" as="geometry" />
        </mxCell>
        <mxCell id="HIL-9lf9A-liKalxmrsc-6" value="" style="endArrow=classic;html=1;rounded=0;entryX=0.5;entryY=0;entryDx=0;entryDy=0;exitX=0;exitY=1;exitDx=0;exitDy=0;fontSize=15;strokeWidth=3;" edge="1" parent="1" source="HIL-9lf9A-liKalxmrsc-2" target="HIL-9lf9A-liKalxmrsc-4">
          <mxGeometry width="50" height="50" relative="1" as="geometry">
            <mxPoint x="310" y="210" as="sourcePoint" />
            <mxPoint x="150" y="110" as="targetPoint" />
          </mxGeometry>
        </mxCell>
        <mxCell id="HIL-9lf9A-liKalxmrsc-8" value="1.写 x=3" style="text;strokeColor=none;fillColor=none;html=1;fontSize=15;fontStyle=1;verticalAlign=middle;align=center;sketch=0;" vertex="1" parent="1">
          <mxGeometry x="160" y="240" width="100" height="40" as="geometry" />
        </mxCell>
        <mxCell id="HIL-9lf9A-liKalxmrsc-9" value="3.读取 y=1" style="text;strokeColor=none;fillColor=none;html=1;fontSize=15;fontStyle=1;verticalAlign=middle;align=center;sketch=0;" vertex="1" parent="1">
          <mxGeometry x="500" y="130" width="100" as="geometry" />
        </mxCell>
        <mxCell id="HIL-9lf9A-liKalxmrsc-18" value="2.leader宕机或者网络原因同步失败" style="text;strokeColor=none;fillColor=none;html=1;fontSize=15;fontStyle=1;verticalAlign=middle;align=center;labelBackgroundColor=none;" vertex="1" parent="1">
          <mxGeometry x="270" y="460" width="100" height="40" as="geometry" />
        </mxCell>
        <mxCell id="HIL-9lf9A-liKalxmrsc-21" value="整个集群依然能提供服务" style="text;strokeColor=none;fillColor=none;html=1;fontSize=15;fontStyle=1;verticalAlign=middle;align=center;labelBackgroundColor=none;" vertex="1" parent="1">
          <mxGeometry x="330" y="290" width="100" height="40" as="geometry" />
        </mxCell>
        <mxCell id="HIL-9lf9A-liKalxmrsc-23" style="edgeStyle=orthogonalEdgeStyle;rounded=0;orthogonalLoop=1;jettySize=auto;html=1;fontSize=15;strokeWidth=3;sketch=1;" edge="1" parent="1" source="HIL-9lf9A-liKalxmrsc-25" target="HIL-9lf9A-liKalxmrsc-26">
          <mxGeometry relative="1" as="geometry" />
        </mxCell>
        <mxCell id="HIL-9lf9A-liKalxmrsc-25" value="leader2" style="rounded=1;whiteSpace=wrap;html=1;strokeWidth=2;fillWeight=4;hachureGap=8;hachureAngle=45;fillColor=#f8cecc;sketch=0;strokeColor=#b85450;fontSize=20;fontStyle=1" vertex="1" parent="1">
          <mxGeometry x="520" y="360" width="120" height="80" as="geometry" />
        </mxCell>
        <mxCell id="HIL-9lf9A-liKalxmrsc-27" style="edgeStyle=orthogonalEdgeStyle;rounded=0;orthogonalLoop=1;jettySize=auto;html=1;entryX=1;entryY=0.5;entryDx=0;entryDy=0;labelBackgroundColor=none;strokeWidth=3;fontSize=15;fontColor=#000000;sketch=1;" edge="1" parent="1" source="HIL-9lf9A-liKalxmrsc-26" target="HIL-9lf9A-liKalxmrsc-2">
          <mxGeometry relative="1" as="geometry">
            <Array as="points">
              <mxPoint x="720" y="560" />
              <mxPoint x="720" y="160" />
            </Array>
          </mxGeometry>
        </mxCell>
        <mxCell id="HIL-9lf9A-liKalxmrsc-26" value="follower" style="rounded=1;whiteSpace=wrap;html=1;strokeWidth=2;fillWeight=4;hachureGap=8;hachureAngle=45;fillColor=#dae8fc;sketch=0;strokeColor=#6c8ebf;fontSize=20;fontStyle=1" vertex="1" parent="1">
          <mxGeometry x="520" y="520" width="120" height="80" as="geometry" />
        </mxCell>
        <mxCell id="HIL-9lf9A-liKalxmrsc-28" value="3.读取 x=2" style="text;strokeColor=none;fillColor=none;html=1;fontSize=15;fontStyle=1;verticalAlign=middle;align=center;sketch=0;" vertex="1" parent="1">
          <mxGeometry x="150" y="130" width="100" as="geometry" />
        </mxCell>
      </root>
    </mxGraphModel>
  </diagram>
</mxfile>
